<svg xmlns="http://www.w3.org/2000/svg" version="1.1" xmlns:xlink="http://www.w3.org/1999/xlink" xmlns:svgjs="http://svgjs.com/svgjs" width="397" height="407"><svg width="397" height="407" viewBox="0 0 397 407" fill="none" xmlns="http://www.w3.org/2000/svg">
<path d="M369.339 183.433L217.494 240.813C212.83 242.579 208.041 243.417 203.34 243.417C187.148 243.417 171.899 233.534 165.842 217.494C158.018 196.779 168.456 173.654 189.166 165.831L298.109 124.659C306.871 135.16 313.73 146.919 318.567 159.752C326.27 180.178 348.85 190.622 369.339 183.433Z" fill="#B192F7"></path>
<path d="M384.441 173.927C384.09 174.278 383.728 174.634 383.356 174.975C382.989 175.321 382.601 175.667 382.208 176.002C381.449 176.657 380.652 177.286 379.835 177.883C379.835 177.894 379.824 177.894 379.819 177.899C379.001 178.502 378.158 179.068 377.288 179.613C376.958 179.822 376.633 180.011 376.292 180.215C375.925 180.425 375.553 180.634 375.176 180.834C375.029 180.912 374.893 180.986 374.752 181.064C374.605 181.137 374.463 181.211 374.317 181.279C373.939 181.473 373.557 181.662 373.164 181.85C373.153 181.861 373.148 181.866 373.138 181.866C372.189 182.306 371.22 182.715 370.229 183.092L369.564 183.338C369.485 183.37 369.412 183.396 369.333 183.427C348.844 190.617 326.264 180.173 318.561 159.747C313.73 146.914 306.865 135.155 298.104 124.654L341.896 108.11C362.579 100.297 385.677 110.709 393.533 131.366C393.543 131.398 393.548 131.429 393.564 131.461C394.376 133.609 394.989 135.784 395.408 137.964C395.498 138.383 395.571 138.797 395.634 139.216C395.66 139.321 395.676 139.426 395.681 139.53C395.77 140.075 395.849 140.62 395.906 141.176C397.274 153.338 392.935 165.406 384.441 173.927Z" fill="#3E6AB3"></path>
<path d="M369.569 183.344L370.235 183.097C371.23 182.72 372.2 182.311 373.143 181.871C372.189 182.322 371.209 182.736 370.209 183.113C369.994 183.192 369.784 183.27 369.569 183.344Z" fill="#0F4C81"></path>
<path d="M373.169 181.855C374.595 181.179 375.973 180.435 377.288 179.618C375.973 180.435 374.605 181.19 373.169 181.855Z" fill="#0F4C81"></path>
<path d="M379.824 178.904C379.007 179.507 378.163 180.083 377.293 180.618C378.163 180.073 379.007 179.502 379.824 178.904Z" fill="#0F4C81"></path>
<path d="M393.569 275.183C383.351 302.285 367.709 326.479 347.094 347.094C308.699 385.499 257.634 406.644 203.324 406.644C149.015 406.644 97.9548 385.499 59.5495 347.094C21.1546 308.689 0 257.628 0 203.319C0 149.01 21.1546 97.9495 59.5495 59.5495C97.9548 21.1441 149.015 0 203.324 0C257.634 0 308.694 21.1441 347.094 59.5495C367.688 80.1329 383.309 104.301 393.538 131.366C385.683 110.709 362.579 100.297 341.901 108.11L298.109 124.654C295.688 121.745 293.125 118.936 290.411 116.227C242.395 68.201 164.254 68.201 116.233 116.227C92.9714 139.488 80.1591 170.416 80.1591 203.314C80.1591 236.212 92.9661 267.145 116.233 290.406C164.259 338.422 242.395 338.422 290.411 290.406C302.914 277.903 312.388 263.256 318.561 246.886C326.374 226.172 349.494 215.712 370.209 223.525C390.923 231.354 401.377 254.469 393.569 275.183Z" fill="#5A86EF"></path>
</svg><style>@media (prefers-color-scheme: light) { :root { filter: none; } }
</style></svg>